<mxfile host="Electron" agent="Mozilla/5.0 (Windows NT 10.0; Win64; x64) AppleWebKit/537.36 (KHTML, like Gecko) draw.io/27.0.9 Chrome/134.0.6998.205 Electron/35.4.0 Safari/537.36" version="27.0.9">
  <diagram name="Page-1" id="K3YTbnQlaTOb-g4yxVi8">
    <mxGraphModel dx="1603" dy="963" grid="1" gridSize="10" guides="1" tooltips="1" connect="1" arrows="1" fold="1" page="1" pageScale="1" pageWidth="850" pageHeight="1100" background="none" math="0" shadow="0">
      <root>
        <mxCell id="0" />
        <mxCell id="1" parent="0" />
        <mxCell id="tWVbFejJEdpRzgFwUfgF-1" value="&lt;font&gt;High Level Architecture&lt;/font&gt;" style="text;html=1;align=center;verticalAlign=middle;resizable=0;points=[];autosize=1;strokeColor=none;fillColor=none;fontSize=25;fontStyle=1" vertex="1" parent="1">
          <mxGeometry x="700" y="50" width="270" height="40" as="geometry" />
        </mxCell>
        <mxCell id="tWVbFejJEdpRzgFwUfgF-2" value="" style="rounded=0;whiteSpace=wrap;html=1;fillColor=none;dashed=1;" vertex="1" parent="1">
          <mxGeometry x="260" y="235" width="200" height="480" as="geometry" />
        </mxCell>
        <mxCell id="tWVbFejJEdpRzgFwUfgF-3" value="&lt;b&gt;Sources&lt;/b&gt;" style="rounded=0;whiteSpace=wrap;html=1;fontSize=20;strokeColor=none;fillColor=default;" vertex="1" parent="1">
          <mxGeometry x="320" y="205" width="80" height="60" as="geometry" />
        </mxCell>
        <mxCell id="tWVbFejJEdpRzgFwUfgF-4" value="" style="rounded=0;whiteSpace=wrap;html=1;fillColor=none;strokeColor=default;dashed=1;" vertex="1" parent="1">
          <mxGeometry x="500" y="235" width="680" height="600" as="geometry" />
        </mxCell>
        <mxCell id="tWVbFejJEdpRzgFwUfgF-5" value="&lt;b&gt;Data Warehouse&lt;/b&gt;" style="rounded=0;whiteSpace=wrap;html=1;fillColor=default;dashed=1;fontSize=20;strokeColor=none;" vertex="1" parent="1">
          <mxGeometry x="760" y="205" width="160" height="60" as="geometry" />
        </mxCell>
        <mxCell id="tWVbFejJEdpRzgFwUfgF-9" value="" style="rounded=0;whiteSpace=wrap;html=1;fillColor=none;dashed=1;" vertex="1" parent="1">
          <mxGeometry x="1220" y="235" width="200" height="480" as="geometry" />
        </mxCell>
        <mxCell id="tWVbFejJEdpRzgFwUfgF-10" value="&lt;b&gt;Consume&lt;/b&gt;" style="rounded=0;whiteSpace=wrap;html=1;fontSize=20;strokeColor=none;fillColor=default;" vertex="1" parent="1">
          <mxGeometry x="1280" y="205" width="80" height="60" as="geometry" />
        </mxCell>
        <mxCell id="tWVbFejJEdpRzgFwUfgF-11" value="&lt;b&gt;Bronze Layer&lt;/b&gt;" style="rounded=1;whiteSpace=wrap;html=1;fontSize=17;fillColor=#FFCE9F;strokeColor=#FFB570;fontColor=#000000;fillStyle=auto;glass=0;strokeWidth=2;perimeterSpacing=0;shadow=0;opacity=80;" vertex="1" parent="1">
          <mxGeometry x="540" y="275" width="160" height="60" as="geometry" />
        </mxCell>
        <mxCell id="tWVbFejJEdpRzgFwUfgF-13" value="&lt;b&gt;Gold Layer&lt;/b&gt;" style="rounded=1;whiteSpace=wrap;html=1;fontSize=17;fillColor=#e3c800;strokeColor=#B09500;fontColor=#000000;opacity=60;" vertex="1" parent="1">
          <mxGeometry x="980" y="275" width="160" height="60" as="geometry" />
        </mxCell>
        <mxCell id="tWVbFejJEdpRzgFwUfgF-14" value="&lt;b&gt;Silver Layer&lt;/b&gt;" style="rounded=1;whiteSpace=wrap;html=1;fontSize=17;fillColor=#D0D0D0;opacity=60;strokeWidth=1;" vertex="1" parent="1">
          <mxGeometry x="760" y="275" width="160" height="60" as="geometry" />
        </mxCell>
        <mxCell id="tWVbFejJEdpRzgFwUfgF-15" value="" style="rounded=0;whiteSpace=wrap;html=1;fillColor=none;strokeColor=#FFB570;strokeWidth=2;opacity=80;" vertex="1" parent="1">
          <mxGeometry x="540" y="355" width="160" height="440" as="geometry" />
        </mxCell>
        <mxCell id="tWVbFejJEdpRzgFwUfgF-16" value="" style="rounded=0;whiteSpace=wrap;html=1;fillColor=none;strokeColor=#999999;strokeWidth=2;opacity=80;" vertex="1" parent="1">
          <mxGeometry x="760" y="355" width="160" height="440" as="geometry" />
        </mxCell>
        <mxCell id="tWVbFejJEdpRzgFwUfgF-17" value="" style="rounded=0;whiteSpace=wrap;html=1;strokeColor=light-dark(#FBC826,#543300);strokeWidth=2;fillColor=none;" vertex="1" parent="1">
          <mxGeometry x="980" y="355" width="160" height="440" as="geometry" />
        </mxCell>
        <mxCell id="tWVbFejJEdpRzgFwUfgF-18" value="" style="image;aspect=fixed;html=1;points=[];align=center;fontSize=12;image=img/lib/azure2/general/Folder_Blank.svg;" vertex="1" parent="1">
          <mxGeometry x="320" y="299" width="69" height="56.00000000000001" as="geometry" />
        </mxCell>
        <mxCell id="tWVbFejJEdpRzgFwUfgF-19" value="" style="image;aspect=fixed;html=1;points=[];align=center;fontSize=12;image=img/lib/azure2/general/File.svg;" vertex="1" parent="1">
          <mxGeometry x="367.53" y="325" width="32.47" height="40" as="geometry" />
        </mxCell>
        <mxCell id="tWVbFejJEdpRzgFwUfgF-20" value="CRM" style="text;html=1;align=center;verticalAlign=middle;whiteSpace=wrap;rounded=0;fontSize=13;fontStyle=1" vertex="1" parent="1">
          <mxGeometry x="324.5" y="365" width="60" height="30" as="geometry" />
        </mxCell>
        <mxCell id="tWVbFejJEdpRzgFwUfgF-21" value="" style="image;aspect=fixed;html=1;points=[];align=center;fontSize=12;image=img/lib/azure2/general/Folder_Blank.svg;" vertex="1" parent="1">
          <mxGeometry x="320" y="455" width="69" height="56.00000000000001" as="geometry" />
        </mxCell>
        <mxCell id="tWVbFejJEdpRzgFwUfgF-22" value="" style="image;aspect=fixed;html=1;points=[];align=center;fontSize=12;image=img/lib/azure2/general/File.svg;" vertex="1" parent="1">
          <mxGeometry x="367.53" y="481" width="32.47" height="40" as="geometry" />
        </mxCell>
        <mxCell id="tWVbFejJEdpRzgFwUfgF-23" value="ERP" style="text;html=1;align=center;verticalAlign=middle;whiteSpace=wrap;rounded=0;fontSize=13;fontStyle=1" vertex="1" parent="1">
          <mxGeometry x="324.5" y="521" width="60" height="30" as="geometry" />
        </mxCell>
        <mxCell id="tWVbFejJEdpRzgFwUfgF-29" value="" style="endArrow=none;html=1;rounded=0;" edge="1" parent="1">
          <mxGeometry width="50" height="50" relative="1" as="geometry">
            <mxPoint x="285" y="555" as="sourcePoint" />
            <mxPoint x="435" y="555" as="targetPoint" />
          </mxGeometry>
        </mxCell>
        <mxCell id="tWVbFejJEdpRzgFwUfgF-30" value="&lt;b&gt;Object type:&lt;/b&gt; CSV files&lt;br&gt;&lt;br&gt;&lt;b&gt;&amp;nbsp; Interface: &lt;/b&gt;Files in folder" style="text;html=1;align=center;verticalAlign=middle;whiteSpace=wrap;rounded=0;fontSize=11;" vertex="1" parent="1">
          <mxGeometry x="289.13" y="585" width="141.74" height="30" as="geometry" />
        </mxCell>
        <mxCell id="tWVbFejJEdpRzgFwUfgF-31" value="" style="html=1;verticalLabelPosition=bottom;align=center;labelBackgroundColor=#ffffff;verticalAlign=top;strokeWidth=2;strokeColor=#0080F0;shadow=0;dashed=0;shape=mxgraph.ios7.icons.data;fillColor=#FFCE9F;opacity=80;" vertex="1" parent="1">
          <mxGeometry x="599" y="386.45" width="42" height="49.1" as="geometry" />
        </mxCell>
        <mxCell id="tWVbFejJEdpRzgFwUfgF-32" value="" style="html=1;verticalLabelPosition=bottom;align=center;labelBackgroundColor=#ffffff;verticalAlign=top;strokeWidth=2;strokeColor=#0080F0;shadow=0;dashed=0;shape=mxgraph.ios7.icons.data;fillColor=#BABABA;opacity=70;" vertex="1" parent="1">
          <mxGeometry x="819" y="386.45" width="42" height="49.1" as="geometry" />
        </mxCell>
        <mxCell id="tWVbFejJEdpRzgFwUfgF-33" value="" style="html=1;verticalLabelPosition=bottom;align=center;labelBackgroundColor=#ffffff;verticalAlign=top;strokeWidth=2;strokeColor=#0080F0;shadow=0;dashed=0;shape=mxgraph.ios7.icons.data;fillColor=#F5D800;opacity=60;" vertex="1" parent="1">
          <mxGeometry x="1039" y="386.45" width="42" height="49.1" as="geometry" />
        </mxCell>
        <mxCell id="tWVbFejJEdpRzgFwUfgF-34" value="" style="shape=singleArrow;whiteSpace=wrap;html=1;fontColor=#A9C4EB;fillColor=#A9C4EB;strokeColor=#7EA6E0;" vertex="1" parent="1">
          <mxGeometry x="450" y="435" width="100" height="40" as="geometry" />
        </mxCell>
        <mxCell id="tWVbFejJEdpRzgFwUfgF-35" value="" style="shape=singleArrow;whiteSpace=wrap;html=1;fontColor=#A9C4EB;fillColor=#A9C4EB;strokeColor=#7EA6E0;" vertex="1" parent="1">
          <mxGeometry x="690" y="435" width="100" height="40" as="geometry" />
        </mxCell>
        <mxCell id="tWVbFejJEdpRzgFwUfgF-36" value="" style="shape=singleArrow;whiteSpace=wrap;html=1;fontColor=#A9C4EB;fillColor=#A9C4EB;strokeColor=#7EA6E0;" vertex="1" parent="1">
          <mxGeometry x="910" y="435" width="100" height="40" as="geometry" />
        </mxCell>
        <mxCell id="tWVbFejJEdpRzgFwUfgF-37" value="" style="shape=singleArrow;whiteSpace=wrap;html=1;fontColor=#A9C4EB;fillColor=#A9C4EB;strokeColor=#7EA6E0;" vertex="1" parent="1">
          <mxGeometry x="1130" y="435" width="100" height="40" as="geometry" />
        </mxCell>
        <mxCell id="tWVbFejJEdpRzgFwUfgF-38" value="&lt;font style=&quot;font-size: 13px;&quot;&gt;Raw data&lt;/font&gt;" style="text;html=1;align=center;verticalAlign=middle;whiteSpace=wrap;rounded=0;" vertex="1" parent="1">
          <mxGeometry x="590" y="451.55" width="60" height="30" as="geometry" />
        </mxCell>
        <mxCell id="tWVbFejJEdpRzgFwUfgF-39" value="&lt;font style=&quot;font-size: 13px;&quot;&gt;Cleaned, Standardized data&lt;/font&gt;" style="text;html=1;align=center;verticalAlign=middle;whiteSpace=wrap;rounded=0;" vertex="1" parent="1">
          <mxGeometry x="785" y="460.55" width="110" height="30" as="geometry" />
        </mxCell>
        <mxCell id="tWVbFejJEdpRzgFwUfgF-40" value="&lt;font style=&quot;font-size: 13px;&quot;&gt;Bussiness-ready data&lt;/font&gt;" style="text;html=1;align=center;verticalAlign=middle;whiteSpace=wrap;rounded=0;" vertex="1" parent="1">
          <mxGeometry x="1010" y="460.55" width="100" height="30" as="geometry" />
        </mxCell>
        <mxCell id="tWVbFejJEdpRzgFwUfgF-41" value="" style="endArrow=none;html=1;rounded=0;" edge="1" parent="1">
          <mxGeometry width="50" height="50" relative="1" as="geometry">
            <mxPoint x="545" y="515.55" as="sourcePoint" />
            <mxPoint x="695" y="515.55" as="targetPoint" />
          </mxGeometry>
        </mxCell>
        <mxCell id="tWVbFejJEdpRzgFwUfgF-42" value="&lt;div&gt;&lt;b&gt;&lt;br&gt;&lt;/b&gt;&lt;/div&gt;&lt;b&gt;&lt;div&gt;&lt;b&gt;&lt;br&gt;&lt;/b&gt;&lt;/div&gt;Object type:&lt;/b&gt;&amp;nbsp;Tables&lt;div&gt;&lt;br&gt;&lt;div&gt;&lt;div style=&quot;text-align: left;&quot;&gt;&lt;b style=&quot;background-color: transparent; color: light-dark(rgb(0, 0, 0), rgb(255, 255, 255));&quot;&gt;&amp;nbsp; &amp;nbsp; Load:&amp;nbsp;&lt;/b&gt;&lt;/div&gt;&lt;div style=&quot;text-align: left;&quot;&gt;&lt;ul&gt;&lt;li&gt;Batch Processing&lt;/li&gt;&lt;li&gt;Full load&lt;/li&gt;&lt;li&gt;Truncate &amp;amp; Insert&lt;/li&gt;&lt;/ul&gt;&lt;/div&gt;&lt;div style=&quot;text-align: left;&quot;&gt;&lt;b style=&quot;background-color: transparent; color: light-dark(rgb(0, 0, 0), rgb(255, 255, 255));&quot;&gt;&lt;span style=&quot;white-space: pre;&quot;&gt;&#x9;&lt;/span&gt;&lt;br&gt;&lt;/b&gt;&lt;/div&gt;&lt;div style=&quot;text-align: left;&quot;&gt;&lt;span style=&quot;white-space: pre;&quot;&gt;&#x9;&lt;/span&gt;&lt;br&gt;&lt;/div&gt;&lt;div&gt;&lt;b&gt;&lt;br&gt;&lt;/b&gt;&lt;/div&gt;&lt;div&gt;&lt;b&gt;&lt;br&gt;&lt;/b&gt;&lt;/div&gt;&lt;/div&gt;&lt;/div&gt;" style="text;html=1;align=center;verticalAlign=middle;whiteSpace=wrap;rounded=0;fontSize=11;" vertex="1" parent="1">
          <mxGeometry x="530" y="555.55" width="140" height="80" as="geometry" />
        </mxCell>
        <mxCell id="tWVbFejJEdpRzgFwUfgF-43" value="&lt;div&gt;&lt;br&gt;&lt;/div&gt;&lt;div&gt;&lt;div style=&quot;text-align: left;&quot;&gt;&lt;b style=&quot;background-color: transparent; color: light-dark(rgb(0, 0, 0), rgb(255, 255, 255));&quot;&gt;&amp;nbsp; &amp;nbsp;&amp;nbsp;&lt;/b&gt;&lt;/div&gt;&lt;div style=&quot;text-align: left;&quot;&gt;&lt;b style=&quot;background-color: transparent; color: light-dark(rgb(0, 0, 0), rgb(255, 255, 255));&quot;&gt;&amp;nbsp; &amp;nbsp;&amp;nbsp;&lt;/b&gt;&lt;b style=&quot;background-color: transparent; color: light-dark(rgb(0, 0, 0), rgb(255, 255, 255)); text-align: center;&quot;&gt;Object type:&lt;/b&gt;&lt;span style=&quot;background-color: transparent; color: light-dark(rgb(0, 0, 0), rgb(255, 255, 255)); text-align: center;&quot;&gt;&amp;nbsp;Tables&lt;/span&gt;&lt;/div&gt;&lt;div style=&quot;text-align: left;&quot;&gt;&lt;b style=&quot;background-color: transparent; color: light-dark(rgb(0, 0, 0), rgb(255, 255, 255));&quot;&gt;&lt;br&gt;&lt;/b&gt;&lt;/div&gt;&lt;div style=&quot;text-align: left;&quot;&gt;&lt;b style=&quot;background-color: transparent; color: light-dark(rgb(0, 0, 0), rgb(255, 255, 255));&quot;&gt;&amp;nbsp; &amp;nbsp; Transformations:&amp;nbsp;&lt;/b&gt;&lt;/div&gt;&lt;div style=&quot;text-align: left;&quot;&gt;&lt;ul&gt;&lt;li&gt;Data Cleansing&lt;/li&gt;&lt;li&gt;Data Standardization&lt;/li&gt;&lt;li&gt;Data Normalization&lt;/li&gt;&lt;li&gt;Derived Columns&lt;/li&gt;&lt;li&gt;Data Enrichment&lt;/li&gt;&lt;/ul&gt;&lt;/div&gt;&lt;div style=&quot;text-align: left;&quot;&gt;&lt;b style=&quot;background-color: transparent; color: light-dark(rgb(0, 0, 0), rgb(255, 255, 255));&quot;&gt;&amp;nbsp; &amp;nbsp; Data Model&lt;/b&gt;&lt;b style=&quot;background-color: transparent; color: light-dark(rgb(0, 0, 0), rgb(255, 255, 255)); text-align: center;&quot;&gt;:&lt;/b&gt;&lt;span style=&quot;background-color: transparent; color: light-dark(rgb(0, 0, 0), rgb(255, 255, 255)); text-align: center;&quot;&gt;&amp;nbsp;None (as-is)&lt;/span&gt;&lt;/div&gt;&lt;div&gt;&lt;span style=&quot;background-color: transparent; color: light-dark(rgb(0, 0, 0), rgb(255, 255, 255)); text-align: center;&quot;&gt;&lt;br&gt;&lt;/span&gt;&lt;/div&gt;&lt;div style=&quot;text-align: left;&quot;&gt;&lt;span style=&quot;white-space: pre;&quot;&gt;&#x9;&lt;/span&gt;&lt;br&gt;&lt;/div&gt;&lt;div&gt;&lt;b&gt;&lt;br&gt;&lt;/b&gt;&lt;/div&gt;&lt;div&gt;&lt;b&gt;&lt;br&gt;&lt;/b&gt;&lt;/div&gt;&lt;/div&gt;" style="text;html=1;align=center;verticalAlign=middle;whiteSpace=wrap;rounded=0;fontSize=11;" vertex="1" parent="1">
          <mxGeometry x="760" y="575" width="150" height="80" as="geometry" />
        </mxCell>
        <mxCell id="tWVbFejJEdpRzgFwUfgF-47" value="&lt;div&gt;&lt;br&gt;&lt;/div&gt;&lt;div&gt;&lt;div style=&quot;text-align: left;&quot;&gt;&lt;b style=&quot;background-color: transparent; color: light-dark(rgb(0, 0, 0), rgb(255, 255, 255));&quot;&gt;&lt;br&gt;&lt;/b&gt;&lt;/div&gt;&lt;div style=&quot;text-align: left;&quot;&gt;&lt;b style=&quot;background-color: transparent; color: light-dark(rgb(0, 0, 0), rgb(255, 255, 255)); text-align: center;&quot;&gt;Object type:&lt;/b&gt;&lt;span style=&quot;background-color: transparent; color: light-dark(rgb(0, 0, 0), rgb(255, 255, 255)); text-align: center;&quot;&gt;&amp;nbsp;Views&lt;/span&gt;&lt;/div&gt;&lt;div style=&quot;text-align: left;&quot;&gt;&lt;span style=&quot;background-color: transparent; color: light-dark(rgb(0, 0, 0), rgb(255, 255, 255)); text-align: center;&quot;&gt;&lt;br&gt;&lt;/span&gt;&lt;/div&gt;&lt;div style=&quot;text-align: left;&quot;&gt;&lt;span style=&quot;background-color: transparent; color: light-dark(rgb(0, 0, 0), rgb(255, 255, 255)); text-align: center;&quot;&gt;&lt;b&gt;No Load&lt;/b&gt;&lt;/span&gt;&lt;/div&gt;&lt;div style=&quot;text-align: left;&quot;&gt;&lt;b style=&quot;background-color: transparent; color: light-dark(rgb(0, 0, 0), rgb(255, 255, 255));&quot;&gt;&lt;br&gt;&lt;/b&gt;&lt;/div&gt;&lt;div style=&quot;text-align: left;&quot;&gt;&lt;b style=&quot;background-color: transparent; color: light-dark(rgb(0, 0, 0), rgb(255, 255, 255));&quot;&gt;Transformations:&amp;nbsp;&lt;/b&gt;&lt;/div&gt;&lt;div style=&quot;text-align: left;&quot;&gt;&lt;ul&gt;&lt;li&gt;Data Cleansing&lt;/li&gt;&lt;li&gt;Data Standardization&lt;/li&gt;&lt;li&gt;Data Normalization&lt;/li&gt;&lt;li&gt;Derived Columns&lt;/li&gt;&lt;li&gt;Data Enrichment&lt;/li&gt;&lt;/ul&gt;&lt;/div&gt;&lt;div style=&quot;text-align: left;&quot;&gt;&lt;div&gt;&lt;b style=&quot;background-color: transparent; color: light-dark(rgb(0, 0, 0), rgb(255, 255, 255));&quot;&gt;Transformations:&amp;nbsp;&lt;/b&gt;&lt;/div&gt;&lt;div&gt;&lt;ul&gt;&lt;li&gt;Star Schema&lt;/li&gt;&lt;li&gt;Flat Table&lt;/li&gt;&lt;li&gt;Aggregated Table&lt;/li&gt;&lt;/ul&gt;&lt;/div&gt;&lt;/div&gt;&lt;div&gt;&lt;span style=&quot;background-color: transparent; color: light-dark(rgb(0, 0, 0), rgb(255, 255, 255)); text-align: center;&quot;&gt;&lt;br&gt;&lt;/span&gt;&lt;/div&gt;&lt;div style=&quot;text-align: left;&quot;&gt;&lt;span style=&quot;white-space: pre;&quot;&gt;&#x9;&lt;/span&gt;&lt;br&gt;&lt;/div&gt;&lt;div&gt;&lt;b&gt;&lt;br&gt;&lt;/b&gt;&lt;/div&gt;&lt;div&gt;&lt;b&gt;&lt;br&gt;&lt;/b&gt;&lt;/div&gt;&lt;/div&gt;" style="text;html=1;align=center;verticalAlign=middle;whiteSpace=wrap;rounded=0;fontSize=11;" vertex="1" parent="1">
          <mxGeometry x="965" y="635.55" width="190" height="40" as="geometry" />
        </mxCell>
        <mxCell id="tWVbFejJEdpRzgFwUfgF-50" value="" style="endArrow=none;html=1;rounded=0;" edge="1" parent="1">
          <mxGeometry width="50" height="50" relative="1" as="geometry">
            <mxPoint x="765" y="515.25" as="sourcePoint" />
            <mxPoint x="915" y="515.25" as="targetPoint" />
          </mxGeometry>
        </mxCell>
        <mxCell id="tWVbFejJEdpRzgFwUfgF-51" value="" style="endArrow=none;html=1;rounded=0;" edge="1" parent="1">
          <mxGeometry width="50" height="50" relative="1" as="geometry">
            <mxPoint x="985" y="515.25" as="sourcePoint" />
            <mxPoint x="1135" y="515.25" as="targetPoint" />
          </mxGeometry>
        </mxCell>
        <mxCell id="tWVbFejJEdpRzgFwUfgF-55" value="" style="image;aspect=fixed;html=1;points=[];align=center;fontSize=12;image=img/lib/azure2/power_platform/PowerBI.svg;" vertex="1" parent="1">
          <mxGeometry x="1303.75" y="295" width="37.5" height="50" as="geometry" />
        </mxCell>
        <mxCell id="tWVbFejJEdpRzgFwUfgF-57" value="" style="sketch=0;pointerEvents=1;shadow=0;dashed=0;html=1;strokeColor=none;fillColor=#505050;labelPosition=center;verticalLabelPosition=bottom;verticalAlign=top;outlineConnect=0;align=center;shape=mxgraph.office.servers.monitoring_sql_reporting_services;" vertex="1" parent="1">
          <mxGeometry x="1298.75" y="431.55" width="42.5" height="50" as="geometry" />
        </mxCell>
        <mxCell id="tWVbFejJEdpRzgFwUfgF-58" value="" style="sketch=0;points=[[0,0,0],[0.25,0,0],[0.5,0,0],[0.75,0,0],[1,0,0],[0,1,0],[0.25,1,0],[0.5,1,0],[0.75,1,0],[1,1,0],[0,0.25,0],[0,0.5,0],[0,0.75,0],[1,0.25,0],[1,0.5,0],[1,0.75,0]];outlineConnect=0;fontColor=#232F3E;fillColor=#01A88D;strokeColor=#ffffff;dashed=0;verticalLabelPosition=bottom;verticalAlign=top;align=center;html=1;fontSize=12;fontStyle=0;aspect=fixed;shape=mxgraph.aws4.resourceIcon;resIcon=mxgraph.aws4.machine_learning;" vertex="1" parent="1">
          <mxGeometry x="1295" y="570.55" width="50" height="50" as="geometry" />
        </mxCell>
        <mxCell id="tWVbFejJEdpRzgFwUfgF-59" value="BI &amp;amp; reporting" style="text;html=1;align=center;verticalAlign=middle;whiteSpace=wrap;rounded=0;" vertex="1" parent="1">
          <mxGeometry x="1282.5" y="345" width="80" height="30" as="geometry" />
        </mxCell>
        <mxCell id="tWVbFejJEdpRzgFwUfgF-60" value="Ad-hoc SQL queries" style="text;html=1;align=center;verticalAlign=middle;whiteSpace=wrap;rounded=0;" vertex="1" parent="1">
          <mxGeometry x="1267.5" y="481" width="110" height="30" as="geometry" />
        </mxCell>
        <mxCell id="tWVbFejJEdpRzgFwUfgF-61" value="Machine Learning" style="text;html=1;align=center;verticalAlign=middle;whiteSpace=wrap;rounded=0;" vertex="1" parent="1">
          <mxGeometry x="1270" y="625" width="100" height="30" as="geometry" />
        </mxCell>
        <mxCell id="tWVbFejJEdpRzgFwUfgF-62" value="" style="sketch=0;pointerEvents=1;shadow=0;dashed=0;html=1;strokeColor=none;fillColor=#005F4B;labelPosition=center;verticalLabelPosition=bottom;verticalAlign=top;align=center;outlineConnect=0;shape=mxgraph.veeam2.sql_server;" vertex="1" parent="1">
          <mxGeometry x="500" y="153" width="40" height="52" as="geometry" />
        </mxCell>
        <mxCell id="tWVbFejJEdpRzgFwUfgF-63" value="&lt;font style=&quot;font-size: 14px;&quot;&gt;&amp;nbsp;SQL Server&lt;/font&gt;" style="text;html=1;align=center;verticalAlign=middle;whiteSpace=wrap;rounded=0;" vertex="1" parent="1">
          <mxGeometry x="540" y="164" width="90" height="30" as="geometry" />
        </mxCell>
      </root>
    </mxGraphModel>
  </diagram>
</mxfile>
